<?xml version="1.0" standalone="no"?>
<!DOCTYPE svg PUBLIC "-//W3C//DTD SVG 20010904//EN"
 "http://www.w3.org/TR/2001/REC-SVG-20010904/DTD/svg10.dtd">
<svg version="1.0" xmlns="http://www.w3.org/2000/svg"
 width="467.000000pt" height="312.000000pt" viewBox="0 0 467.000000 312.000000"
 preserveAspectRatio="xMidYMid meet">
<metadata>
Created by potrace 1.16, written by Peter Selinger 2001-2019
</metadata>
<g transform="translate(0.000000,300.000000) scale(0.100000,-0.100000)"
fill="#fff" stroke="none">
<path d="M3200 2764 c-45 -30 -100 -88 -132 -137 -17 -27 -68 -86 -112 -130
-70 -70 -175 -208 -188 -247 -3 -9 -23 -6 -73 10 -98 32 -288 39 -388 15 -153
-36 -291 -127 -402 -265 -39 -48 -64 -70 -79 -70 -48 0 -147 -33 -261 -88
l-120 -57 -130 0 c-144 0 -199 16 -250 71 l-25 27 0 -89 c0 -114 30 -245 76
-342 50 -105 154 -209 239 -241 120 -46 201 -48 403 -14 25 4 32 2 32 -10 0
-9 21 -57 47 -107 50 -100 143 -209 229 -270 l49 -34 -41 49 c-149 182 -219
363 -233 600 l-6 110 -19 -40 c-11 -22 -22 -67 -25 -100 l-6 -60 -60 -30 c-55
-28 -68 -30 -160 -29 -111 1 -161 15 -236 66 -80 54 -161 190 -175 292 l-7 44
39 -9 c107 -24 214 -4 319 59 85 52 194 88 315 104 49 6 90 16 90 21 0 23 97
152 153 203 48 44 159 114 180 114 2 0 -23 -26 -54 -59 -32 -32 -67 -77 -78
-100 l-22 -41 61 49 c72 58 162 104 245 126 87 22 237 20 320 -6 37 -11 68
-19 69 -17 109 161 197 268 284 346 39 34 74 71 77 82 10 32 20 24 39 -32 10
-29 55 -127 99 -218 81 -165 81 -165 82 -245 0 -120 -44 -196 -113 -195 -30 1
-97 36 -130 70 -18 18 -45 56 -60 84 -22 42 -27 64 -27 127 1 67 5 85 35 146
40 80 28 84 -30 11 -57 -73 -83 -148 -77 -228 5 -73 20 -111 102 -250 126
-215 159 -381 109 -549 -31 -106 -150 -247 -278 -330 -36 -24 -66 -44 -66 -46
0 -1 24 2 53 6 58 9 161 50 220 87 22 13 41 21 44 18 9 -9 -40 -99 -75 -138
-51 -56 -124 -107 -203 -140 -83 -35 -244 -68 -332 -68 -50 -1 -58 -3 -43 -12
26 -15 258 -4 353 16 235 50 401 148 478 280 80 137 111 303 101 555 -4 97 -7
183 -7 191 0 8 9 51 20 95 25 98 28 244 6 330 -9 33 -45 123 -81 200 -95 203
-126 301 -122 386 3 74 -1 80 -42 53z"/>
<path d="M2675 1988 c-31 -17 -45 -39 -45 -73 0 -57 71 -96 135 -75 68 22 84
82 36 131 -32 31 -87 39 -126 17z"/>
<path d="M2050 1778 c-48 -33 -65 -70 -48 -105 28 -58 100 -65 158 -16 24 19
30 33 30 62 0 71 -76 102 -140 59z"/>
<path d="M2482 1756 c-101 -26 -177 -100 -251 -246 -76 -148 -101 -290 -65
-366 51 -107 250 -97 514 27 161 77 259 138 326 204 51 50 63 69 72 110 13 61
0 97 -52 143 -119 104 -388 168 -544 128z m241 -72 c123 -32 207 -93 229 -167
10 -34 9 -44 -8 -75 -59 -111 -435 -302 -593 -302 -51 0 -52 1 -68 38 -22 53
-19 190 7 274 35 115 127 223 205 241 46 11 171 6 228 -9z"/>
<path d="M2720 1613 c-24 -9 -50 -35 -50 -49 0 -9 10 -11 35 -7 29 5 39 1 65
-25 24 -24 30 -39 30 -73 l0 -42 24 22 c32 31 39 64 22 105 -21 50 -85 85
-126 69z"/>
<path d="M2368 1503 c-75 -47 -62 -165 22 -208 54 -28 63 -19 30 27 -41 56
-39 114 3 138 25 14 30 13 57 -2 37 -21 38 -9 4 31 -30 36 -72 41 -116 14z"/>
<path d="M1643 1701 c-40 -16 -98 -43 -130 -61 -32 -19 -86 -43 -121 -55 -51
-19 -58 -24 -40 -29 80 -21 158 2 349 103 l134 71 -60 -1 c-42 0 -82 -8 -132
-28z"/>
</g>
</svg>
